{"title":"The.Rite.2011.PPVRIP-MARCUSFILIPPE","uid":6313588,"size":750715900,"categoryP":"video","categoryS":"movies","magnet":"?xt=urn:btih:2ff63a1e6094e5c92ce4982f46fdd53633739434&amp;dn=The.Rite.2011.PPVRIP-MARCUSFILIPPE&amp;tr=udp%3A%2F%2Ftracker.openbittorrent.com%3A80&amp;tr=udp%3A%2F%2Fopen.demonii.com%3A1337&amp;tr=udp%3A%2F%2Ftracker.coppersurfer.tk%3A6969&amp;tr=udp%3A%2F%2Fexodus.desync.com%3A6969","seeders":0,"leechers":0,"uploader":"marcusfilipp","files":3,"time":1302623186,"description":"*************The.Rite.2011.PPVRIP-MARCUSFILIPPE*************\n\n\n\nRelease name                     : The.Rite.2011.PPVRIP-MARCUSFILIPPE\nIMDB                             : http://www.imdb.com/title/tt1161864/\nFormat                           : AVI\nFormat/Info                      : Audio Video Interleave\nFile size                        : 700 MiB\nDuration                         : 1h 52mn\nOverall bit rate                 : 867 Kbps\nWriting application              : VirtualDubMod 1.5.10.2 (build 2542/release)\nWriting library                  : VirtualDubMod build 2542/release\n\nVideo\nID                               : 0\nFormat                           : MPEG-4 Visual\nFormat profile                   : Advanced Simple@L5\nFormat settings, BVOP            : Yes\nFormat settings, QPel            : No\nFormat settings, GMC             : No warppoints\nFormat settings, Matrix          : Default (H.263)\nMuxing mode                      : Packed bitstream\nCodec ID                         : XVID\nCodec ID/Hint                    : XviD\nDuration                         : 1h 52mn\nBit rate                         : 728 Kbps\nWidth                            : 720 pixels\nHeight                           : 480 pixels\nDisplay aspect ratio             : 3:2\nFrame rate                       : 29.970 fps\nStandard                         : NTSC\nColor space                      : YUV\nChroma subsampling               : 4:2:0\nBit depth                        : 8 bits\nScan type                        : Progressive\nCompression mode                 : Lossy\nBits/(Pixel*Frame)               : 0.070\nStream size                      : 587 MiB (84%)\nWriting library                  : XviD 63\n\nAudio\nID                               : 1\nFormat                           : MPEG Audio\nFormat version                   : Version 1\nFormat profile                   : Layer 3\nMode                             : Joint stereo\nMode extension                   : MS Stereo\nCodec ID                         : 55\nCodec ID/Hint                    : MP3\nDuration                         : 1h 52mn\nBit rate mode                    : Constant\nBit rate                         : 128 Kbps\nChannel(s)                       : 2 channels\nSampling rate                    : 44.1 KHz\nCompression mode                 : Lossy\nStream size                      : 103 MiB (15%)\nAlignment                        : Split accross interleaves\nInterleave, duration             : 33 ms (1.00 video frame)\nInterleave, preload duration     : 500 ms\nWriting library                  : LAME3.98r\nEncoding settings                : -m j -V 4 -q 2 -lowpass 17 -b 128\n\n\n &lt;a href=&quot;\nhttp://bayimg.com/jAHNkAaDI&quot; rel=&quot;nofollow&quot; target=&quot;_NEW&quot;&gt;\nhttp://bayimg.com/jAHNkAaDI&lt;/a&gt; &lt;a href=&quot;\nhttp://bayimg.com/jahnLaadI&quot; rel=&quot;nofollow&quot; target=&quot;_NEW&quot;&gt;\nhttp://bayimg.com/jahnLaadI&lt;/a&gt; &lt;a href=&quot;\nhttp://bayimg.com/JAhNMAADi&quot; rel=&quot;nofollow&quot; target=&quot;_NEW&quot;&gt;\nhttp://bayimg.com/JAhNMAADi&lt;/a&gt; &lt;a href=&quot;\nhttp://bayimg.com/jAhNnaAdi&quot; rel=&quot;nofollow&quot; target=&quot;_NEW&quot;&gt;\nhttp://bayimg.com/jAhNnaAdi&lt;/a&gt;","torrent":{"xt":"urn:btih:2ff63a1e6094e5c92ce4982f46fdd53633739434","amp;dn":"The.Rite.2011.PPVRIP-MARCUSFILIPPE","amp;tr":["udp%3A%2F%2Ftracker.openbittorrent.com%3A80","udp%3A%2F%2Fopen.demonii.com%3A1337","udp%3A%2F%2Ftracker.coppersurfer.tk%3A6969","udp%3A%2F%2Fexodus.desync.com%3A6969"],"infoHash":"2ff63a1e6094e5c92ce4982f46fdd53633739434","infoHashBuffer":{"type":"Buffer","data":[47,246,58,30,96,148,229,201,44,228,152,47,70,253,213,54,51,115,148,52]},"announce":[],"urlList":[]}}